<svg width="956" height="827" viewBox="0 0 956 827" fill="none" xmlns="http://www.w3.org/2000/svg">
<g filter="url(#filter0_f_108_50)">
<path d="M498 359.5C498 322.614 486.329 286.556 464.462 255.886C442.596 225.216 411.517 201.312 375.154 187.196C338.792 173.081 298.779 169.387 260.177 176.584C221.575 183.78 186.116 201.542 158.286 227.625C130.455 253.707 111.502 286.938 103.824 323.116C96.1453 359.293 100.086 396.792 115.148 430.87C130.21 464.949 155.716 494.076 188.442 514.569C221.167 535.062 259.642 546 299 546V359.5H498Z" fill="#C1ECFF"/>
</g>
<g filter="url(#filter1_f_108_50)">
<path d="M320 413.5C320 445.837 331.319 477.448 352.526 504.336C373.733 531.223 403.876 552.179 439.142 564.554C474.408 576.929 513.214 580.167 550.652 573.858C588.091 567.55 622.48 551.978 649.472 529.112C676.463 506.246 694.845 477.113 702.292 445.397C709.739 413.681 705.916 380.807 691.309 350.931C676.701 321.056 651.964 295.52 620.225 277.555C588.486 259.589 551.172 250 513 250V413.5H320Z" fill="#FF9900" fill-opacity="0.81"/>
</g>
<defs>
<filter id="filter0_f_108_50" x="-0.00012207" y="72.9999" width="598" height="573" filterUnits="userSpaceOnUse" color-interpolation-filters="sRGB">
<feFlood flood-opacity="0" result="BackgroundImageFix"/>
<feBlend mode="normal" in="SourceGraphic" in2="BackgroundImageFix" result="shape"/>
<feGaussianBlur stdDeviation="50" result="effect1_foregroundBlur_108_50"/>
</filter>
<filter id="filter1_f_108_50" x="70" y="0" width="886" height="827" filterUnits="userSpaceOnUse" color-interpolation-filters="sRGB">
<feFlood flood-opacity="0" result="BackgroundImageFix"/>
<feBlend mode="normal" in="SourceGraphic" in2="BackgroundImageFix" result="shape"/>
<feGaussianBlur stdDeviation="125" result="effect1_foregroundBlur_108_50"/>
</filter>
</defs>
</svg>
